<svg xmlns="http://www.w3.org/2000/svg" width="256" height="172" viewBox="0 0 256 172">
<path d="M 176 71 L 175 72 L 163 72 L 162 73 L 158 73 L 157 74 L 156 74 L 155 75 L 155 80 L 156 81 L 156 82 L 157 83 L 158 83 L 159 84 L 160 84 L 161 85 L 162 85 L 163 86 L 169 86 L 170 87 L 177 87 L 177 86 L 178 85 L 178 79 L 179 78 L 179 75 L 180 74 L 180 73 L 181 72 L 181 71 Z" fill="#0033CC"/>
<path d="M 187 70 L 186 71 L 184 71 L 184 73 L 183 74 L 183 77 L 182 78 L 182 80 L 181 81 L 181 84 L 180 85 L 180 88 L 183 88 L 184 89 L 184 88 L 185 87 L 185 84 L 186 83 L 186 81 L 187 80 L 187 77 L 188 76 L 188 74 L 189 73 L 189 70 Z" fill="#0033CC"/>
<path d="M 200 69 L 199 70 L 196 70 L 195 71 L 195 73 L 194 74 L 194 76 L 193 77 L 193 80 L 192 81 L 192 84 L 191 85 L 191 90 L 195 90 L 195 88 L 196 87 L 196 85 L 197 84 L 197 81 L 198 80 L 198 77 L 199 76 L 199 73 L 200 72 L 200 70 L 201 69 Z" fill="#0033CC"/>
<path d="M 212 68 L 211 69 L 209 69 L 208 70 L 208 72 L 207 73 L 207 75 L 206 76 L 206 79 L 205 80 L 205 86 L 204 87 L 204 91 L 205 91 L 206 92 L 209 92 L 209 91 L 210 90 L 210 87 L 211 86 L 211 83 L 212 82 L 212 80 L 213 79 L 213 76 L 214 75 L 214 73 L 215 72 L 215 70 L 216 69 L 216 68 Z" fill="#0033CC"/>
<path d="M 236 66 L 235 67 L 227 67 L 227 69 L 226 70 L 226 73 L 225 74 L 225 76 L 224 77 L 224 80 L 223 81 L 223 83 L 222 84 L 222 87 L 221 88 L 221 89 L 223 89 L 224 88 L 225 88 L 227 86 L 228 86 L 229 85 L 229 84 L 231 82 L 231 81 L 235 77 L 235 76 L 240 71 L 240 67 L 239 66 Z" fill="#0033CC"/>
<path d="M 16 66 L 15 67 L 15 70 L 16 71 L 16 72 L 17 73 L 18 73 L 19 74 L 19 75 L 21 77 L 21 78 L 26 83 L 26 84 L 29 87 L 30 87 L 32 89 L 33 89 L 34 90 L 36 90 L 37 91 L 39 91 L 40 92 L 50 92 L 51 91 L 57 91 L 58 90 L 64 90 L 65 89 L 72 89 L 73 88 L 78 88 L 79 87 L 86 87 L 87 86 L 92 86 L 93 85 L 95 85 L 96 84 L 97 84 L 99 82 L 100 82 L 100 81 L 101 80 L 101 75 L 100 74 L 99 74 L 98 73 L 96 73 L 95 72 L 83 72 L 82 71 L 72 71 L 71 70 L 59 70 L 58 69 L 47 69 L 46 68 L 34 68 L 33 67 L 23 67 L 22 66 Z" fill="#0033CC"/>
<path d="M 142 44 L 140 46 L 139 46 L 137 48 L 136 48 L 135 49 L 133 49 L 132 50 L 132 61 L 133 62 L 133 72 L 134 73 L 134 84 L 135 85 L 135 96 L 136 97 L 136 107 L 137 108 L 137 119 L 138 120 L 138 130 L 139 131 L 139 142 L 140 143 L 140 154 L 141 155 L 141 166 L 142 167 L 142 171 L 145 171 L 146 170 L 146 159 L 147 158 L 147 147 L 148 146 L 148 136 L 149 135 L 149 124 L 150 123 L 150 122 L 145 122 L 144 121 L 144 120 L 145 119 L 150 119 L 150 113 L 151 112 L 151 110 L 146 110 L 144 108 L 144 107 L 146 105 L 151 105 L 151 101 L 152 100 L 152 97 L 147 97 L 144 94 L 144 92 L 146 90 L 147 90 L 148 89 L 152 89 L 152 88 L 153 87 L 153 66 L 154 65 L 154 54 L 155 53 L 155 50 L 154 50 L 153 49 L 152 49 L 150 47 L 149 47 L 147 45 L 146 45 L 145 44 Z" fill="#0033CC"/>
<path d="M 115 43 L 113 45 L 112 45 L 110 47 L 109 47 L 107 49 L 106 49 L 105 50 L 104 50 L 103 51 L 103 52 L 104 53 L 104 64 L 105 65 L 105 75 L 106 76 L 106 87 L 107 88 L 107 98 L 108 99 L 108 110 L 109 111 L 109 122 L 110 123 L 110 133 L 111 134 L 111 145 L 112 146 L 112 157 L 113 158 L 113 169 L 114 170 L 114 171 L 117 171 L 117 168 L 118 167 L 118 156 L 119 155 L 119 145 L 120 144 L 120 133 L 121 132 L 121 122 L 122 121 L 122 110 L 123 109 L 123 98 L 124 97 L 124 87 L 125 86 L 125 74 L 126 73 L 126 63 L 127 62 L 127 51 L 125 49 L 124 49 L 122 47 L 121 47 L 119 45 L 118 45 L 116 43 Z" fill="#0033CC"/>
<path d="M 201 25 L 200 26 L 199 26 L 198 27 L 197 27 L 196 28 L 196 29 L 195 30 L 194 29 L 193 29 L 191 31 L 190 31 L 189 32 L 188 32 L 187 33 L 186 33 L 185 34 L 184 34 L 183 35 L 182 35 L 180 37 L 179 37 L 177 39 L 176 39 L 175 40 L 174 40 L 173 41 L 172 41 L 171 42 L 170 42 L 169 43 L 168 43 L 166 45 L 165 45 L 164 46 L 163 46 L 159 50 L 159 51 L 158 52 L 158 55 L 159 56 L 159 57 L 160 58 L 160 59 L 162 61 L 163 61 L 165 63 L 167 63 L 168 64 L 176 64 L 177 63 L 181 63 L 182 62 L 186 62 L 187 61 L 192 61 L 193 60 L 194 60 L 195 59 L 195 57 L 196 56 L 196 53 L 197 52 L 197 49 L 198 48 L 198 46 L 199 45 L 199 43 L 200 42 L 200 39 L 201 38 L 201 35 L 202 34 L 202 31 L 203 30 L 203 28 L 204 27 L 204 25 Z" fill="#0033CC"/>
<path d="M 215 18 L 214 19 L 213 19 L 212 20 L 211 20 L 210 21 L 209 21 L 207 23 L 207 25 L 206 26 L 206 29 L 205 30 L 205 36 L 204 37 L 204 40 L 203 41 L 203 44 L 202 45 L 202 48 L 201 49 L 201 50 L 200 51 L 200 54 L 199 55 L 199 59 L 203 59 L 204 58 L 205 58 L 205 56 L 206 55 L 206 52 L 207 51 L 207 49 L 208 48 L 208 46 L 209 45 L 209 42 L 210 41 L 210 38 L 211 37 L 211 35 L 212 34 L 212 31 L 213 30 L 213 27 L 214 26 L 214 24 L 215 23 L 215 21 L 216 20 L 216 18 Z" fill="#0033CC"/>
<path d="M 143 15 L 142 16 L 141 16 L 140 17 L 139 17 L 137 19 L 136 19 L 135 20 L 134 20 L 133 21 L 132 21 L 132 33 L 133 34 L 134 34 L 135 35 L 136 35 L 137 36 L 138 36 L 140 38 L 141 38 L 142 39 L 144 39 L 145 38 L 146 38 L 147 37 L 148 37 L 150 35 L 151 35 L 152 34 L 153 34 L 153 21 L 151 19 L 150 19 L 149 18 L 148 18 L 147 17 L 146 17 L 144 15 Z" fill="#0033CC"/>
<path d="M 115 15 L 114 16 L 113 16 L 111 18 L 110 18 L 109 19 L 108 19 L 107 20 L 106 20 L 105 21 L 105 33 L 107 35 L 108 35 L 109 36 L 110 36 L 111 37 L 112 37 L 114 39 L 117 39 L 119 37 L 120 37 L 121 36 L 122 36 L 124 34 L 125 34 L 126 33 L 126 21 L 125 20 L 124 20 L 123 19 L 122 19 L 121 18 L 120 18 L 118 16 L 117 16 L 116 15 Z" fill="#0033CC"/>
<path d="M 232 8 L 229 11 L 228 11 L 227 12 L 226 12 L 225 13 L 224 13 L 223 14 L 223 17 L 222 18 L 222 20 L 221 21 L 221 24 L 220 25 L 220 27 L 219 28 L 219 31 L 218 32 L 218 34 L 217 35 L 217 38 L 216 39 L 216 42 L 215 43 L 215 45 L 214 46 L 214 48 L 213 49 L 213 52 L 212 53 L 212 56 L 214 56 L 215 55 L 216 55 L 217 54 L 218 54 L 219 53 L 220 53 L 221 52 L 222 52 L 223 51 L 223 49 L 224 48 L 224 45 L 225 44 L 225 42 L 226 41 L 226 38 L 227 37 L 227 34 L 228 33 L 228 31 L 229 30 L 229 24 L 230 23 L 230 20 L 231 19 L 231 17 L 232 16 L 232 13 L 233 12 L 233 8 Z" fill="#0033CC"/>
<path d="M 247 0 L 246 1 L 245 1 L 244 2 L 244 3 L 243 4 L 243 7 L 242 8 L 242 11 L 241 12 L 241 15 L 240 16 L 240 18 L 239 19 L 239 22 L 238 23 L 238 25 L 237 26 L 237 28 L 236 29 L 236 32 L 235 33 L 235 36 L 234 37 L 234 40 L 233 41 L 233 43 L 234 43 L 235 42 L 236 42 L 242 36 L 242 35 L 244 33 L 244 32 L 246 30 L 246 29 L 247 28 L 247 27 L 249 25 L 249 24 L 251 22 L 251 21 L 252 20 L 252 19 L 253 18 L 253 17 L 254 16 L 254 14 L 255 13 L 255 2 L 253 0 Z" fill="#0033CC"/>
<path d="M 2 0 L 0 2 L 0 12 L 1 13 L 1 15 L 2 16 L 2 17 L 3 18 L 3 19 L 4 20 L 4 21 L 5 22 L 5 23 L 7 25 L 7 26 L 9 28 L 9 29 L 10 30 L 10 31 L 12 33 L 12 34 L 21 43 L 22 43 L 27 48 L 29 48 L 31 50 L 32 50 L 34 52 L 35 52 L 36 53 L 37 53 L 38 54 L 39 54 L 40 55 L 41 55 L 42 56 L 45 56 L 46 57 L 49 57 L 50 58 L 54 58 L 55 59 L 59 59 L 60 60 L 64 60 L 65 61 L 70 61 L 71 62 L 75 62 L 76 63 L 81 63 L 82 64 L 87 64 L 88 63 L 90 63 L 91 62 L 92 62 L 97 57 L 97 50 L 92 45 L 91 45 L 90 44 L 89 44 L 88 43 L 87 43 L 86 42 L 85 42 L 83 40 L 82 40 L 81 39 L 80 39 L 79 38 L 78 38 L 76 36 L 75 36 L 74 35 L 73 35 L 71 33 L 70 33 L 69 32 L 68 32 L 67 31 L 66 31 L 65 30 L 64 30 L 63 29 L 62 29 L 61 28 L 60 28 L 58 26 L 57 26 L 56 25 L 53 25 L 52 24 L 51 24 L 49 22 L 48 22 L 46 20 L 45 20 L 44 19 L 43 19 L 42 18 L 41 18 L 40 17 L 39 17 L 38 16 L 37 16 L 36 15 L 35 15 L 34 14 L 33 14 L 31 12 L 30 12 L 29 11 L 28 11 L 27 10 L 26 10 L 24 8 L 23 8 L 22 7 L 21 7 L 19 5 L 18 5 L 17 4 L 16 4 L 15 3 L 14 3 L 13 2 L 12 2 L 11 1 L 10 1 L 9 0 Z" fill="#0033CC"/>
</svg>